<?xml version="1.0" encoding="UTF-8"?>
<!-- Generator: Adobe Illustrator 21.1.0, SVG Export Plug-In . SVG Version: 6.00 Build 0)  -->
<svg version="1.1" id="Layer_1" xmlns="http://www.w3.org/2000/svg" xmlns:xlink="http://www.w3.org/1999/xlink" x="0px" y="0px" viewBox="0 0 158.1 35" style="enable-background:new 0 0 158.1 35;" xml:space="preserve" nighteye="disabled">
<style type="text/css">
	.st0{fill:#FFFFFF;}
	.st1{fill:#E31E2E;}
</style>
<polygon class="st0" points="19,11.1 23.1,11.1 13.6,24.7 4,11.1 8.3,11.1 13.6,19 "/>
<rect x="25.4" y="11.1" class="st0" width="3.7" height="13.5"/>
<path class="st0" d="M33,15.6c0-1.2,0.5-2.3,1.3-3.2c0.9-0.9,2.1-1.3,3.7-1.3h12.6l-1.6,3H38.9c-0.6,0-1.1,0.2-1.6,0.6  c-0.4,0.4-0.6,0.9-0.6,1.5v3.4c0,0.6,0.2,1.1,0.6,1.5c0.4,0.4,1,0.5,1.6,0.6H46c0.6,0,1-0.1,1.2-0.3c0.2-0.2,0.3-0.6,0.3-1.1v-1  h-5.2l1.5-2.7h7.4v4.3c0,1.1-0.4,2-1.3,2.7c-0.8,0.8-1.9,1.1-3.1,1.2H38c-1.5,0-2.7-0.5-3.7-1.4c-0.9-0.9-1.4-1.9-1.4-3.1V15.6z"/>
<rect x="54.6" y="11.1" class="st0" width="3.7" height="13.5"/>
<polygon class="st0" points="84.9,24.7 84.9,14.1 78.3,14.1 79.3,11.1 95.6,11.1 94.6,14.1 88.6,14.1 88.6,24.7 "/>
<path class="st0" d="M96.9,15.6c0-1.2,0.4-2.3,1.3-3.2c0.9-0.9,2.1-1.3,3.7-1.3h8.2c1.6,0,2.8,0.5,3.7,1.3c0.9,0.9,1.3,1.9,1.3,3.1  v4.6c0,1.2-0.4,2.2-1.4,3.1c-0.9,0.9-2.1,1.4-3.7,1.4H102c-1.5,0-2.7-0.5-3.7-1.4c-0.9-0.9-1.4-1.9-1.4-3.1V15.6z M109.3,21.6  c0.7,0,1.2-0.2,1.6-0.6c0.4-0.4,0.6-0.8,0.6-1.5v-3.4c0-0.6-0.2-1.1-0.6-1.5c-0.4-0.4-1-0.6-1.6-0.6h-6.3c-0.7,0-1.2,0.2-1.6,0.6  c-0.4,0.4-0.6,0.9-0.6,1.5v3.5c0,0.6,0.2,1.1,0.6,1.4c0.4,0.4,1,0.6,1.6,0.6H109.3z"/>
<polygon class="st0" points="72.7,11.1 68.6,11.1 60.5,24.7 64.7,24.7 65.5,23.3 65.5,23.3 65.8,22.7 65.9,22.7 67.9,19.3   70.6,14.7 73.9,20.2 69.7,20.2 68.2,22.7 75.3,22.7 76.5,24.7 80.8,24.7 "/>
<polygon class="st1" points="154.1,0.5 137.4,29.4 123.7,5.7 120.7,5.7 137.4,34.5 157.1,0.5 "/>
<polygon class="st1" points="145,5.7 126.6,5.7 137.3,24.2 144.9,11 135.6,11 137.1,13.7 140.4,13.7 140.4,13.7 137.3,19.1   131.1,8.4 146.5,8.4 151.1,0.5 117.7,0.5 119.2,3.1 146.5,3.1 "/>
</svg>